<?xml version="1.0" encoding="UTF-8" standalone="no"?>
<!-- Created with Inkscape (http://www.inkscape.org/) -->
<svg
   xmlns:dc="http://purl.org/dc/elements/1.1/"
   xmlns:cc="http://web.resource.org/cc/"
   xmlns:rdf="http://www.w3.org/1999/02/22-rdf-syntax-ns#"
   xmlns:svg="http://www.w3.org/2000/svg"
   xmlns="http://www.w3.org/2000/svg"
   xmlns:sodipodi="http://sodipodi.sourceforge.net/DTD/sodipodi-0.dtd"
   xmlns:inkscape="http://www.inkscape.org/namespaces/inkscape"
   width="64"
   height="64"
   id="svg2313"
   sodipodi:version="0.32"
   inkscape:version="0.45.1"
   version="1.0"
   sodipodi:docbase="/home/scott/.nautilus/python-extensions"
   sodipodi:docname="pcw.svg"
   inkscape:output_extension="org.inkscape.output.svg.inkscape">
  <defs
     id="defs2315" />
  <sodipodi:namedview
     id="base"
     pagecolor="#ffffff"
     bordercolor="#666666"
     borderopacity="1.0"
     gridtolerance="10000"
     guidetolerance="10"
     objecttolerance="10"
     inkscape:pageopacity="0.0"
     inkscape:pageshadow="2"
     inkscape:zoom="0.35"
     inkscape:cx="375"
     inkscape:cy="520"
     inkscape:document-units="px"
     inkscape:current-layer="layer1"
     inkscape:window-width="746"
     inkscape:window-height="612"
     inkscape:window-x="651"
     inkscape:window-y="435" />
  <metadata
     id="metadata2318">
    <rdf:RDF>
      <cc:Work
         rdf:about="">
        <dc:format>image/svg+xml</dc:format>
        <dc:type
           rdf:resource="http://purl.org/dc/dcmitype/StillImage" />
      </cc:Work>
    </rdf:RDF>
  </metadata>
  <g
     inkscape:label="Layer 1"
     inkscape:groupmode="layer"
     id="layer1"
     transform="translate(-322.28571,-520.36218)">
    <path
       d="M 354.24469,520.36218 C 363.21539,520.36218 370.79938,523.45495 376.99469,529.64148 C 383.18805,535.82898 386.28571,543.40222 386.28571,552.36218 C 386.28571,561.32214 383.24079,568.81628 377.15485,574.84265 C 370.69195,581.18933 363.05523,584.36218 354.24469,584.36218 C 345.54157,584.36218 338.03766,581.21667 331.73688,574.92273 C 325.43512,568.62976 322.28571,561.10828 322.28571,552.36218 C 322.28571,543.61608 325.43512,536.04187 331.73688,529.64148 C 337.8775,523.45495 345.3814,520.36218 354.24469,520.36218 z M 329.48492,543.76648 C 328.52984,546.46668 328.0523,549.33191 328.0523,552.36218 C 328.0523,559.45593 330.64214,565.58874 335.82183,570.76159 C 341.00249,575.93542 347.16851,578.52233 354.32476,578.52233 C 361.48101,578.52233 367.70171,575.91003 372.98882,570.68249 C 374.75835,568.97155 376.21538,567.10632 377.35991,565.08386 L 365.29741,559.71179 C 364.47905,563.77038 360.86186,566.51257 356.48882,566.83484 L 356.48882,571.76746 L 352.81597,571.76746 L 352.81597,566.83484 C 349.22417,566.79382 345.75445,565.32605 343.1021,563.00281 L 347.5103,558.55847 C 349.63237,560.55652 351.75444,561.45398 354.65288,561.45398 C 356.52983,561.45398 358.61186,560.7196 358.61186,558.27332 C 358.61186,557.40613 358.27592,556.80359 357.74663,556.35047 L 354.69683,554.99207 L 350.89703,553.30066 C 349.01812,552.46375 347.42633,551.75476 345.82867,551.0448 L 329.48492,543.76648 z M 354.32476,526.12097 C 347.06304,526.12097 340.92242,528.68152 335.90288,533.80261 C 334.53569,535.18054 333.34819,536.62097 332.33843,538.1239 L 344.57085,543.57019 C 345.67632,540.17761 348.90093,538.11999 352.81597,537.88953 L 352.81597,532.95691 L 356.48882,532.95691 L 356.48882,537.88953 C 359.02007,538.0116 361.79546,538.70496 364.52984,540.82508 L 360.32672,545.14637 C 358.77594,544.04578 356.81695,543.27039 354.85602,543.27039 C 353.2652,543.27039 351.02008,543.76062 351.02008,545.75769 C 351.02008,546.06238 351.12164,546.33093 351.30719,546.57019 L 355.39899,548.39148 L 358.16852,549.62586 C 359.94,550.41395 361.63141,551.16688 363.30719,551.91297 L 379.70367,559.21375 C 380.24664,557.06531 380.51812,554.78113 380.51812,552.36219 C 380.51812,545.05457 377.95562,538.86805 372.82867,533.80262 C 367.75445,528.68152 361.58844,526.12097 354.32476,526.12097 z "
       id="path43" />
  </g>
</svg>
