<?xml version="1.0" encoding="UTF-8" standalone="no"?>
<!-- Created with Inkscape (http://www.inkscape.org/) -->
<svg
   xmlns:dc="http://purl.org/dc/elements/1.1/"
   xmlns:cc="http://web.resource.org/cc/"
   xmlns:rdf="http://www.w3.org/1999/02/22-rdf-syntax-ns#"
   xmlns:svg="http://www.w3.org/2000/svg"
   xmlns="http://www.w3.org/2000/svg"
   xmlns:sodipodi="http://sodipodi.sourceforge.net/DTD/sodipodi-0.dtd"
   xmlns:inkscape="http://www.inkscape.org/namespaces/inkscape"
   width="64.000488"
   height="64"
   id="svg2260"
   sodipodi:version="0.32"
   inkscape:version="0.45.1"
   version="1.0"
   sodipodi:docbase="/home/scott/.nautilus/python-extensions"
   sodipodi:docname="pd.svg"
   inkscape:output_extension="org.inkscape.output.svg.inkscape">
  <defs
     id="defs2262" />
  <sodipodi:namedview
     id="base"
     pagecolor="#ffffff"
     bordercolor="#666666"
     borderopacity="1.0"
     gridtolerance="10000"
     guidetolerance="10"
     objecttolerance="10"
     inkscape:pageopacity="0.0"
     inkscape:pageshadow="2"
     inkscape:zoom="0.35"
     inkscape:cx="375"
     inkscape:cy="150"
     inkscape:document-units="px"
     inkscape:current-layer="layer1"
     inkscape:window-width="746"
     inkscape:window-height="612"
     inkscape:window-x="327"
     inkscape:window-y="219" />
  <metadata
     id="metadata2265">
    <rdf:RDF>
      <cc:Work
         rdf:about="">
        <dc:format>image/svg+xml</dc:format>
        <dc:type
           rdf:resource="http://purl.org/dc/dcmitype/StillImage" />
      </cc:Work>
    </rdf:RDF>
  </metadata>
  <g
     inkscape:label="Layer 1"
     inkscape:groupmode="layer"
     id="layer1"
     transform="translate(-293.71404,-568.93361)">
    <g
       transform="translate(293.71404,476.77931)"
       id="g13">
	<path
   clip-rule="evenodd"
   d="M 31.95898,92.1543 C 23.09521,92.1543 15.59179,95.24707 9.45166,101.4336 C 3.14941,107.83398 0,115.40723 0,124.1543 C 0,132.90039 3.14941,140.4209 9.45166,146.71387 C 15.75195,153.00782 23.25537,156.1543 31.95898,156.1543 C 40.77002,156.1543 48.40673,152.98145 54.86865,146.63477 C 60.95556,140.6084 64.00049,133.11426 64.00049,124.1543 C 64.00049,115.19336 60.90283,107.62012 54.7085,101.4336 C 48.51318,95.24707 40.93018,92.1543 31.95898,92.1543 z M 32.03955,97.91309 C 39.30225,97.91309 45.46924,100.47266 50.54346,105.59375 C 55.66944,110.66016 58.23194,116.84668 58.23194,124.1543 C 58.23194,131.51368 55.72315,137.6211 50.70264,142.47461 C 45.41553,147.70117 39.19483,150.31445 32.03955,150.31445 C 24.8833,150.31445 18.71582,147.72754 13.53613,142.55371 C 8.35644,137.38086 5.7666,131.24707 5.7666,124.1543 C 5.7666,117.06055 8.3833,110.87403 13.6167,105.59375 C 18.63672,100.47266 24.77686,97.91309 32.03955,97.91309 z "
   id="path15"
   style="fill-rule:evenodd" />

	<g
   id="g17">
		<path
   clip-rule="evenodd"
   d="M 21.39941,118.41602 L 25.00146,118.41602 C 27.01367,118.41602 27.85791,119.38477 27.85791,121.14844 C 27.85791,122.51465 27.1377,123.83106 25.12549,123.83106 L 21.39942,123.83106 L 21.39942,118.41602 L 21.39941,118.41602 z M 16.97754,132.82422 L 21.44922,132.82422 L 21.44922,127.11035 L 24.90186,127.11035 C 30.96338,127.11035 32.27979,123.4834 32.27979,121.12402 C 32.27979,117.62109 30.51612,115.13672 25.74659,115.13672 L 16.97755,115.13672 L 16.97755,132.82422 L 16.97754,132.82422 z "
   id="path19"
   style="fill-rule:evenodd" />

		<path
   clip-rule="evenodd"
   d="M 33.48389,132.82422 L 40.34034,132.82422 C 45.73096,132.82422 49.35694,130.26563 49.35694,123.98047 C 49.35694,117.69531 45.73096,115.13672 40.34034,115.13672 L 33.48389,115.13672 L 33.48389,132.82422 L 33.48389,132.82422 z M 37.90479,118.86328 L 40.41456,118.86328 C 43.74366,118.86328 44.93604,121.12402 44.93604,123.98047 C 44.93604,126.83692 43.74366,129.09766 40.43995,129.09766 L 37.90479,129.09766 L 37.90479,118.86328 L 37.90479,118.86328 z "
   id="path21"
   style="fill-rule:evenodd" />

	</g>

</g>
  </g>
</svg>
